<?xml version="1.0" encoding="UTF-8"?>
<svg xmlns="http://www.w3.org/2000/svg" width="77" height="64" viewBox="0 0 77 64" fill="none">
<path d="M13.291 1.45168C8.07611 2.73115 4.75756 6.44162 3.59391 12.4978C2.73195 16.8054 3.68011 22.7336 6.0936 28.15C7.21415 30.6663 9.23976 34.5901 9.62765 34.9739C10.2741 35.6136 11.2089 37.8004 11.7825 38.3858C11.889 38.4945 11.9748 38.6671 12.1273 38.8123C12.3951 39.0673 13.1617 39.708 13.9375 40.8168C15.6614 43.1625 23.1604 50.7114 26.2204 53.0998C27.4272 54.0381 28.8063 55.2322 29.3235 55.744C29.8407 56.2985 30.2134 56.5151 30.5686 56.725C30.7988 56.9104 31.2552 57.2132 31.8232 57.5779C32.2841 57.9359 32.7857 58.2901 33.1207 58.4937C33.4179 58.6742 33.4238 58.656 33.6968 58.8574C34.4087 59.7059 37.9 61.2031 40.0118 61.2031C42.0805 61.2031 45.6145 59.8384 47.0368 58.5162C47.3816 58.2603 48.5021 57.4074 49.5796 56.6397C50.657 55.9146 51.9069 55.019 52.2948 54.6352C52.7257 54.2513 54.0187 53.1851 55.1392 52.2468C57.8544 50.0717 61.0437 46.7877 62.7676 44.4847C63.4572 43.4611 64.27 42.9706 64.4484 42.6507C64.6268 42.3309 64.5867 42.3109 64.7932 42.0537C64.9616 41.6978 65.0352 41.5579 65.1811 41.286C65.8654 40.7249 68.4134 36.7652 70.3528 32.7988C74.7489 23.7572 76.4297 13.6067 74.2748 9.38442C72.8525 6.65487 71.0424 4.90626 67.9394 3.37089C65.3966 2.13406 64.5777 1.96346 61.7763 1.96346C58.5009 1.96346 55.9581 2.6032 53.286 4.13857C52.5102 4.56506 52.2345 4.83962 51.8638 5.2048C51.5383 5.33941 51.5583 5.46603 51.3035 5.546C50.7432 5.546 41.5202 14.5876 41.5202 15.0994C41.5202 15.2273 41.0031 15.8671 40.3997 16.5068L39.2791 17.701L37.9 16.0377C35.2279 12.711 29.6252 7.33725 26.8669 5.46069C22.9881 2.85909 20.9624 1.87817 18.5059 1.53697C17.3422 1.36638 16.1786 1.15313 15.92 1.06784C15.6614 0.982538 14.4977 1.15313 13.291 1.45168ZM20.0574 5.16215C24.7551 6.74017 32.2972 13.0096 37.038 19.2364C38.7189 21.4541 39.3653 22.0086 39.7101 21.6674C40.0118 21.3688 40.2273 20.8997 40.2273 20.6011C40.2273 20.3452 40.4859 19.9188 40.7876 19.7482C41.1323 19.5776 41.5202 19.1084 41.6926 18.7672C42.6408 16.8054 43.8906 15.2273 47.4247 11.6448C48.6314 10.408 49.8382 9.38442 50.0967 9.38442C50.3466 9.15785 50.3733 9.17784 50.5708 9.00057C50.7282 8.5381 55.6133 6.14308 58.6302 5.33275C63.6295 3.96798 68.0686 5.41804 71.3441 9.46971L72.7663 11.261L72.7232 15.995C72.6801 19.3217 72.4647 21.1556 71.9906 22.3498C71.5596 23.2454 71.2579 24.269 71.2579 24.5675C71.2579 27.553 60.6558 43.1625 54.1049 49.8158C51.0018 52.9718 45.7438 57.5353 44.5371 58.175C44.1923 58.3456 43.0718 58.9001 42.0374 59.4545C40.2273 60.4354 40.098 60.4354 38.3741 59.7957C37.3828 59.4119 36.4778 58.9854 36.3485 58.8574C35.8744 58.3883 33.3316 56.725 33.0299 56.725C32.6851 56.6823 17.5577 41.7125 15.6614 39.4521C13.3341 36.7652 12.0769 34.5288 11.7825 34.1636C11.609 33.9483 11.5786 33.8343 11.4809 33.6944C11.0864 33.1298 9.23976 30.6663 7.42964 26.6573C4.62827 20.4732 4.71446 13.7773 7.60204 9.64031C8.98117 7.7211 10.9637 5.97248 12.0842 5.71659C12.6445 5.54599 13.0755 5.2901 13.0755 5.1195C13.0755 4.77831 14.3684 4.47976 16.394 4.30917C16.9543 4.30917 18.592 4.69301 20.0574 5.16215Z" fill="#71834F"></path>
<path d="M73.6809 10.6184C61.2049 -5.69204 45.2636 10.5324 38.8524 20.6834C21.8032 -4.50482 9.49251 2.25113 4.90112 10.582C4.13208 35.9949 27.7827 55.2725 40.1722 60.348C69.4911 43.2118 75.2403 20.3393 73.6809 10.6184Z" fill="#71834F" stroke="#71834F" stroke-width="1.02358"></path>
</svg>
