<?xml version="1.0" encoding="UTF-8"?>
<svg xmlns="http://www.w3.org/2000/svg" width="40" height="34" viewBox="188 0 36 34" fill="none">
  <path d="M193.03 3.77839C188.161 9.62165 198.873 31.7773 206.421 31.7773C210.56 31.7773 222.246 15.2214 222.246 9.62165C222.246 2.80452 216.16 -0.604051 210.316 3.04799C206.421 5.48268 204.717 5.48268 202.282 3.04799C198.386 -0.84752 196.682 -0.604051 193.03 3.77839ZM201.551 7.6739C203.012 12.2998 203.499 12.2998 207.395 8.89125C212.994 3.77839 217.377 4.02186 217.377 8.89125C217.377 13.5172 208.125 29.3427 205.447 29.3427C202.038 29.3427 193.03 10.3521 194.491 6.45655C196.439 1.10023 199.604 1.58717 201.551 7.6739Z" fill="#71834F"/>
</svg>
