<?xml version="1.0" encoding="UTF-8"?>
<svg xmlns="http://www.w3.org/2000/svg" width="57" height="56" viewBox="0 0 57 56" fill="none"><path d="M56.7663 0.688281C45.0996 10.9549 35.5329 19.9149 28.0663 27.5683C21.1596 34.6616 13.9729 42.5016 6.50625 51.0883C3.98625 53.8883 2.63292 55.2883 2.44625 55.2883C1.79292 55.3816 1.37292 54.7283 1.18625 53.3283C0.90625 52.0216 1.04625 50.6683 1.60625 49.2683C3.28625 44.8816 7.90625 39.0016 15.4663 31.6283C22.6529 24.7216 30.2129 18.0016 38.1463 11.4683C34.5063 12.0283 27.1329 15.7616 16.0263 22.6683C15.0929 23.2283 14.5796 23.1816 14.4863 22.5283C14.3929 22.1549 14.7196 21.5949 15.4663 20.8483C23.2129 15.5283 34.6463 9.32161 49.7663 2.22828C50.6996 1.66828 52.3329 1.10828 54.6663 0.548278C55.5063 0.548278 56.2063 0.594946 56.7663 0.688281Z" fill="#71834F"/></svg>