<?xml version="1.0" encoding="UTF-8"?>
<svg xmlns="http://www.w3.org/2000/svg" width="68" height="55" viewBox="0 0 68 55" fill="none"><path d="M67.6674 6.42828C67.6674 11.2816 65.4274 15.7616 60.9474 19.8683C57.0274 23.5083 51.9408 26.6349 45.6874 29.2483C39.9941 31.5816 34.2541 33.9616 28.4674 36.3883C25.2941 37.8816 20.1608 40.6816 13.0674 44.7883C16.6141 43.3883 19.6941 42.7816 22.3074 42.9683C23.8941 43.0616 26.2274 43.6683 29.3074 44.7883C32.4808 45.8149 34.5808 46.3749 35.6074 46.4683C38.4074 46.6549 43.1208 43.8083 49.7474 37.9283C50.5874 37.1816 51.1474 36.9483 51.4274 37.2283C51.8008 37.5083 51.7074 38.0683 51.1474 38.9083C41.5341 48.8016 35.2341 53.6549 32.2474 53.4683C30.6608 53.3749 28.0008 52.6749 24.2674 51.3683C20.5341 50.0616 16.9874 49.3149 13.6274 49.1283C9.89409 48.9416 6.02075 50.5749 2.00742 54.0283C1.26076 54.4949 0.700755 54.6349 0.32742 54.4483C0.140753 54.3549 0.0474199 54.2149 0.0474199 54.0283C0.0474199 53.5616 0.560754 52.8149 1.58742 51.7883C7.18742 46.2816 15.6341 40.5416 26.9274 34.5683C33.8341 30.9283 38.5474 28.3149 41.0674 26.7283C45.6408 23.9283 50.1674 20.5683 54.6474 16.6483C60.4341 11.6083 63.3274 7.78161 63.3274 5.16828C63.3274 3.30161 62.0674 2.36828 59.5474 2.36828C55.4408 2.36828 50.6341 4.84161 45.1274 9.78828C42.8874 11.8416 41.0208 14.1283 39.5274 16.6483C36.8208 21.4083 34.8141 23.6483 33.5074 23.3683C32.8541 23.1816 32.5274 22.7149 32.5274 21.9683C32.5274 21.0349 32.9941 19.8683 33.9274 18.4683C35.9808 15.3883 39.2008 11.9349 43.5874 8.10828C49.7474 2.78828 55.5808 0.128279 61.0874 0.128279C65.4741 0.128279 67.6674 2.22828 67.6674 6.42828Z" fill="#71834F"/></svg>