<?xml version="1.0" encoding="UTF-8"?>
<svg xmlns="http://www.w3.org/2000/svg" width="90" height="77" viewBox="0 0 90 77" fill="none"><path d="M89.8608 7.53656C89.9541 12.5766 87.8075 17.1499 83.4208 21.2566C76.1408 28.1632 67.5074 32.3632 57.5208 33.8566C58.9208 35.2566 59.6208 37.2632 59.6208 39.8766C59.6208 49.0232 54.9074 57.3299 45.4808 64.7966C35.2141 72.9166 23.8741 76.6032 11.4608 75.8566C4.27411 75.4832 0.587445 72.9632 0.400781 68.2966C0.307446 65.3099 1.33411 62.8366 3.48078 60.8766C4.41411 60.2232 5.06744 60.0366 5.44078 60.3166C5.81411 60.5032 5.72078 60.9699 5.16078 61.7166C3.57411 63.7699 2.82745 65.8699 2.92078 68.0166C3.10744 71.9366 6.18745 73.8966 12.1608 73.8966C19.4408 73.8966 28.3074 69.6966 38.7608 61.2966C49.1208 52.9899 54.7674 45.0099 55.7008 37.3566V34.2766C53.9274 34.9299 51.7808 35.3966 49.2608 35.6766C47.3941 35.8632 46.4608 35.5366 46.4608 34.6966C46.4608 34.6032 46.5074 34.2299 46.6008 33.5766C46.7874 32.8299 48.0008 32.4566 50.2408 32.4566C52.1074 32.1766 54.1141 32.2232 56.2608 32.5966C62.3274 30.8232 69.8875 25.6432 78.9408 17.0566C83.1408 13.0432 85.4274 9.35656 85.8008 5.99656C86.0808 3.56989 84.6341 2.35656 81.4608 2.35656C79.3141 2.35656 76.4674 3.52323 72.9208 5.85656C71.1474 6.97656 69.0941 8.98323 66.7608 11.8766C63.2141 16.1699 60.8341 18.3166 59.6208 18.3166C59.4341 18.3166 59.2474 18.2699 59.0608 18.1766C58.0341 17.5232 58.3608 16.0766 60.0408 13.8366C61.8141 11.5032 64.3808 9.07656 67.7408 6.55656C73.5274 2.26323 78.4741 0.163227 82.5808 0.256559C87.3408 0.349894 89.7674 2.77656 89.8608 7.53656Z" fill="#71834F"/></svg>